<svg width="472" height="473" viewBox="0 0 472 473" fill="none" xmlns="http://www.w3.org/2000/svg">
<g filter="url(#filter0_b_771_189)">
<mask id="path-1-inside-1_771_189" fill="white">
<path d="M472 236.06C472 366.428 366.339 472.111 236 472.111C105.661 472.111 0 366.428 0 236.06C0 105.693 105.661 0.00878906 236 0.00878906C366.339 0.00878906 472 105.693 472 236.06ZM107.501 236.06C107.501 307.044 165.032 364.587 236 364.587C306.968 364.587 364.499 307.044 364.499 236.06C364.499 165.077 306.968 107.533 236 107.533C165.032 107.533 107.501 165.077 107.501 236.06Z"/>
</mask>
<path d="M472 236.06C472 366.428 366.339 472.111 236 472.111C105.661 472.111 0 366.428 0 236.06C0 105.693 105.661 0.00878906 236 0.00878906C366.339 0.00878906 472 105.693 472 236.06ZM107.501 236.06C107.501 307.044 165.032 364.587 236 364.587C306.968 364.587 364.499 307.044 364.499 236.06C364.499 165.077 306.968 107.533 236 107.533C165.032 107.533 107.501 165.077 107.501 236.06Z" fill="url(#paint0_linear_771_189)" fill-opacity="0.6"/>
<path d="M472 236.06C472 366.428 366.339 472.111 236 472.111C105.661 472.111 0 366.428 0 236.06C0 105.693 105.661 0.00878906 236 0.00878906C366.339 0.00878906 472 105.693 472 236.06ZM107.501 236.06C107.501 307.044 165.032 364.587 236 364.587C306.968 364.587 364.499 307.044 364.499 236.06C364.499 165.077 306.968 107.533 236 107.533C165.032 107.533 107.501 165.077 107.501 236.06Z" stroke="url(#paint1_linear_771_189)" stroke-opacity="0.6" stroke-width="2" mask="url(#path-1-inside-1_771_189)"/>
</g>
<defs>
<filter id="filter0_b_771_189" x="-24" y="-23.9912" width="520" height="520.103" filterUnits="userSpaceOnUse" color-interpolation-filters="sRGB">
<feFlood flood-opacity="0" result="BackgroundImageFix"/>
<feGaussianBlur in="BackgroundImageFix" stdDeviation="12"/>
<feComposite in2="SourceAlpha" operator="in" result="effect1_backgroundBlur_771_189"/>
<feBlend mode="normal" in="SourceGraphic" in2="effect1_backgroundBlur_771_189" result="shape"/>
</filter>
<linearGradient id="paint0_linear_771_189" x1="-8.48705e-06" y1="472.111" x2="472.103" y2="0.111361" gradientUnits="userSpaceOnUse">
<stop stop-color="#EDFCF6"/>
<stop offset="0.5" stop-color="#E3EBF6"/>
<stop offset="1" stop-color="#EBEBEE"/>
</linearGradient>
<linearGradient id="paint1_linear_771_189" x1="66" y1="-34.9988" x2="302.086" y2="507.582" gradientUnits="userSpaceOnUse">
<stop stop-color="white"/>
<stop offset="1" stop-color="#CBCBCB"/>
</linearGradient>
</defs>
</svg>
