<svg id="svgQrWrapper" viewBox="0 0 300 300" xmlns="http://www.w3.org/2000/svg" xmlns:xlink="http://www.w3.org/1999/xlink" width="300" height="300" style="width: 100%; height: 100%; background-color: rgb(255, 255, 255);"><svg><g transform="translate(9, 9)scale(0.95)" fill="none"><svg width="300" height="300"><style>.background-color{ fill: #fff; }.dot-color{ fill: #000000; }.corners-square-color-0-0{ fill: #000000; }.corners-dot-color-0-0{ fill: #000000; }.corners-square-color-1-0{ fill: #000000; }.corners-dot-color-1-0{ fill: #000000; }.corners-square-color-0-1{ fill: #000000; }.corners-dot-color-0-1{ fill: #000000; }</style><defs/><g class="dot-color"><circle cx="10" cy="90" r="5" transform="rotate(0,10,90)"/><rect x="5" y="115" width="10" height="10" transform="rotate(0,10,120)"/><circle cx="10" cy="140" r="5" transform="rotate(0,10,140)"/><path d="M 5 145v 10h 10v -5a 5 5, 0, 0, 0, -5 -5" transform="rotate(270,10,150)"/><path d="M 5 155v 10h 5a 5 5, 0, 0, 0, 0 -10" transform="rotate(180,10,160)"/><path d="M 5 165v 10h 5a 5 5, 0, 0, 0, 0 -10" transform="rotate(0,10,170)"/><path d="M 5 175v 10h 5a 5 5, 0, 0, 0, 0 -10" transform="rotate(0,10,180)"/><path d="M 5 185v 10h 10v -5a 5 5, 0, 0, 0, -5 -5" transform="rotate(0,10,190)"/><path d="M 5 205v 10h 10v -5a 5 5, 0, 0, 0, -5 -5" transform="rotate(270,10,210)"/><circle cx="20" cy="100" r="5" transform="rotate(0,20,100)"/><path d="M 15 125v 10h 5a 5 5, 0, 0, 0, 0 -10" transform="rotate(0,20,130)"/><circle cx="20" cy="160" r="5" transform="rotate(0,20,160)"/><path d="M 15 165v 10h 5a 5 5, 0, 0, 0, 0 -10" transform="rotate(90,20,170)"/><path d="M 15 195v 10h 5a 5 5, 0, 0, 0, 0 -10" transform="rotate(0,20,200)"/><rect x="25" y="95" width="10" height="10" transform="rotate(0,30,100)"/><rect x="25" y="155" width="10" height="10" transform="rotate(0,30,160)"/><path d="M 25 165v 10h 5a 5 5, 0, 0, 0, 0 -10" transform="rotate(180,30,170)"/><path d="M 25 195v 10h 5a 5 5, 0, 0, 0, 0 -10" transform="rotate(90,30,200)"/><rect x="25" y="205" width="10" height="10" transform="rotate(0,30,210)"/><path d="M 35 105v 10h 10v -5a 5 5, 0, 0, 0, -5 -5" transform="rotate(90,40,110)"/><path d="M 35 125v 10h 5a 5 5, 0, 0, 0, 0 -10" transform="rotate(90,40,130)"/><rect x="35" y="165" width="10" height="10" transform="rotate(0,40,170)"/><path d="M 35 175v 10h 5a 5 5, 0, 0, 0, 0 -10" transform="rotate(90,40,180)"/><path d="M 35 195v 10h 10v -5a 5 5, 0, 0, 0, -5 -5" transform="rotate(270,40,200)"/><circle cx="50" cy="90" r="5" transform="rotate(0,50,90)"/><path d="M 45 105v 10h 5a 5 5, 0, 0, 0, 0 -10" transform="rotate(90,50,110)"/><path d="M 45 145v 10h 10v -5a 5 5, 0, 0, 0, -5 -5" transform="rotate(90,50,150)"/><rect x="45" y="155" width="10" height="10" transform="rotate(0,50,160)"/><path d="M 45 165v 10h 10v -5a 5 5, 0, 0, 0, -5 -5" transform="rotate(0,50,170)"/><circle cx="50" cy="200" r="5" transform="rotate(0,50,200)"/><circle cx="60" cy="90" r="5" transform="rotate(0,60,90)"/><circle cx="60" cy="110" r="5" transform="rotate(0,60,110)"/><circle cx="60" cy="130" r="5" transform="rotate(0,60,130)"/><path d="M 55 155v 10h 10v -5a 5 5, 0, 0, 0, -5 -5" transform="rotate(180,60,160)"/><path d="M 55 165v 10h 10v -5a 5 5, 0, 0, 0, -5 -5" transform="rotate(180,60,170)"/><circle cx="60" cy="190" r="5" transform="rotate(0,60,190)"/><rect x="55" y="205" width="10" height="10" transform="rotate(0,60,210)"/><rect x="65" y="85" width="10" height="10" transform="rotate(0,70,90)"/><path d="M 65 105v 10h 10v -5a 5 5, 0, 0, 0, -5 -5" transform="rotate(90,70,110)"/><path d="M 65 125v 10h 5a 5 5, 0, 0, 0, 0 -10" transform="rotate(270,70,130)"/><path d="M 65 145v 10h 5a 5 5, 0, 0, 0, 0 -10" transform="rotate(90,70,150)"/><rect x="65" y="165" width="10" height="10" transform="rotate(0,70,170)"/><path d="M 65 185v 10h 5a 5 5, 0, 0, 0, 0 -10" transform="rotate(90,70,190)"/><rect x="65" y="205" width="10" height="10" transform="rotate(0,70,210)"/><circle cx="80" cy="100" r="5" transform="rotate(0,80,100)"/><rect x="75" y="115" width="10" height="10" transform="rotate(0,80,120)"/><rect x="75" y="135" width="10" height="10" transform="rotate(0,80,140)"/><circle cx="80" cy="170" r="5" transform="rotate(0,80,170)"/><circle cx="80" cy="210" r="5" transform="rotate(0,80,210)"/><path d="M 85 15v 10h 10v -5a 5 5, 0, 0, 0, -5 -5" transform="rotate(270,90,20)"/><rect x="85" y="25" width="10" height="10" transform="rotate(0,90,30)"/><path d="M 85 35v 10h 5a 5 5, 0, 0, 0, 0 -10" transform="rotate(180,90,40)"/><path d="M 85 45v 10h 5a 5 5, 0, 0, 0, 0 -10" transform="rotate(0,90,50)"/><circle cx="90" cy="60" r="5" transform="rotate(0,90,60)"/><circle cx="90" cy="70" r="5" transform="rotate(0,90,70)"/><path d="M 85 75v 10h 10v -5a 5 5, 0, 0, 0, -5 -5" transform="rotate(0,90,80)"/><circle cx="90" cy="110" r="5" transform="rotate(0,90,110)"/><rect x="85" y="125" width="10" height="10" transform="rotate(0,90,130)"/><rect x="85" y="155" width="10" height="10" transform="rotate(0,90,160)"/><rect x="85" y="165" width="10" height="10" transform="rotate(0,90,170)"/><rect x="85" y="185" width="10" height="10" transform="rotate(0,90,190)"/><path d="M 85 235v 10h 10v -5a 5 5, 0, 0, 0, -5 -5" transform="rotate(0,90,240)"/><path d="M 85 245v 10h 10v -5a 5 5, 0, 0, 0, -5 -5" transform="rotate(0,90,250)"/><circle cx="90" cy="290" r="5" transform="rotate(0,90,290)"/><path d="M 95 25v 10h 10v -5a 5 5, 0, 0, 0, -5 -5" transform="rotate(90,100,30)"/><rect x="95" y="35" width="10" height="10" transform="rotate(0,100,40)"/><path d="M 95 45v 10h 10v -5a 5 5, 0, 0, 0, -5 -5" transform="rotate(180,100,50)"/><path d="M 95 55v 10h 5a 5 5, 0, 0, 0, 0 -10" transform="rotate(180,100,60)"/><rect x="95" y="75" width="10" height="10" transform="rotate(0,100,80)"/><path d="M 95 115v 10h 10v -5a 5 5, 0, 0, 0, -5 -5" transform="rotate(270,100,120)"/><circle cx="100" cy="150" r="5" transform="rotate(0,100,150)"/><circle cx="100" cy="160" r="5" transform="rotate(0,100,160)"/><path d="M 95 165v 10h 10v -5a 5 5, 0, 0, 0, -5 -5" transform="rotate(0,100,170)"/><path d="M 95 215v 10h 5a 5 5, 0, 0, 0, 0 -10" transform="rotate(180,100,220)"/><circle cx="100" cy="240" r="5" transform="rotate(0,100,240)"/><rect x="95" y="245" width="10" height="10" transform="rotate(0,100,250)"/><rect x="95" y="255" width="10" height="10" transform="rotate(0,100,260)"/><circle cx="100" cy="270" r="5" transform="rotate(0,100,270)"/><rect x="95" y="285" width="10" height="10" transform="rotate(0,100,290)"/><rect x="105" y="15" width="10" height="10" transform="rotate(0,110,20)"/><path d="M 105 55v 10h 10v -5a 5 5, 0, 0, 0, -5 -5" transform="rotate(180,110,60)"/><path d="M 105 65v 10h 10v -5a 5 5, 0, 0, 0, -5 -5" transform="rotate(180,110,70)"/><circle cx="110" cy="100" r="5" transform="rotate(0,110,100)"/><path d="M 105 105v 10h 5a 5 5, 0, 0, 0, 0 -10" transform="rotate(270,110,110)"/><rect x="105" y="125" width="10" height="10" transform="rotate(0,110,130)"/><circle cx="110" cy="140" r="5" transform="rotate(0,110,140)"/><circle cx="110" cy="150" r="5" transform="rotate(0,110,150)"/><path d="M 105 155v 10h 5a 5 5, 0, 0, 0, 0 -10" transform="rotate(90,110,160)"/><circle cx="110" cy="170" r="5" transform="rotate(0,110,170)"/><path d="M 105 185v 10h 5a 5 5, 0, 0, 0, 0 -10" transform="rotate(90,110,190)"/><path d="M 105 205v 10h 5a 5 5, 0, 0, 0, 0 -10" transform="rotate(180,110,210)"/><rect x="105" y="215" width="10" height="10" transform="rotate(0,110,220)"/><rect x="105" y="225" width="10" height="10" transform="rotate(0,110,230)"/><path d="M 105 255v 10h 5a 5 5, 0, 0, 0, 0 -10" transform="rotate(0,110,260)"/><path d="M 105 265v 10h 5a 5 5, 0, 0, 0, 0 -10" transform="rotate(180,110,270)"/><path d="M 115 5v 10h 5a 5 5, 0, 0, 0, 0 -10" transform="rotate(90,120,10)"/><rect x="115" y="15" width="10" height="10" transform="rotate(0,120,20)"/><path d="M 115 35v 10h 10v -5a 5 5, 0, 0, 0, -5 -5" transform="rotate(180,120,40)"/><circle cx="120" cy="80" r="5" transform="rotate(0,120,80)"/><path d="M 115 85v 10h 5a 5 5, 0, 0, 0, 0 -10" transform="rotate(180,120,90)"/><rect x="115" y="95" width="10" height="10" transform="rotate(0,120,100)"/><path d="M 115 105v 10h 5a 5 5, 0, 0, 0, 0 -10" transform="rotate(0,120,110)"/><circle cx="120" cy="140" r="5" transform="rotate(0,120,140)"/><circle cx="120" cy="160" r="5" transform="rotate(0,120,160)"/><path d="M 115 195v 10h 10v -5a 5 5, 0, 0, 0, -5 -5" transform="rotate(270,120,200)"/><circle cx="120" cy="210" r="5" transform="rotate(0,120,210)"/><path d="M 115 215v 10h 10v -5a 5 5, 0, 0, 0, -5 -5" transform="rotate(0,120,220)"/><circle cx="120" cy="230" r="5" transform="rotate(0,120,230)"/><path d="M 115 235v 10h 5a 5 5, 0, 0, 0, 0 -10" transform="rotate(0,120,240)"/><path d="M 115 255v 10h 5a 5 5, 0, 0, 0, 0 -10" transform="rotate(0,120,260)"/><path d="M 115 275v 10h 10v -5a 5 5, 0, 0, 0, -5 -5" transform="rotate(90,120,280)"/><circle cx="130" cy="20" r="5" transform="rotate(0,130,20)"/><circle cx="130" cy="40" r="5" transform="rotate(0,130,40)"/><path d="M 125 45v 10h 5a 5 5, 0, 0, 0, 0 -10" transform="rotate(90,130,50)"/><rect x="125" y="65" width="10" height="10" transform="rotate(0,130,70)"/><rect x="125" y="95" width="10" height="10" transform="rotate(0,130,100)"/><path d="M 125 155v 10h 10v -5a 5 5, 0, 0, 0, -5 -5" transform="rotate(180,130,160)"/><path d="M 125 165v 10h 5a 5 5, 0, 0, 0, 0 -10" transform="rotate(90,130,170)"/><path d="M 125 175v 10h 10v -5a 5 5, 0, 0, 0, -5 -5" transform="rotate(270,130,180)"/><path d="M 125 215v 10h 10v -5a 5 5, 0, 0, 0, -5 -5" transform="rotate(0,130,220)"/><path d="M 125 235v 10h 5a 5 5, 0, 0, 0, 0 -10" transform="rotate(270,130,240)"/><path d="M 125 265v 10h 10v -5a 5 5, 0, 0, 0, -5 -5" transform="rotate(180,130,270)"/><path d="M 125 275v 10h 10v -5a 5 5, 0, 0, 0, -5 -5" transform="rotate(180,130,280)"/><rect x="125" y="285" width="10" height="10" transform="rotate(0,130,290)"/><path d="M 135 5v 10h 5a 5 5, 0, 0, 0, 0 -10" transform="rotate(90,140,10)"/><path d="M 135 25v 10h 10v -5a 5 5, 0, 0, 0, -5 -5" transform="rotate(270,140,30)"/><circle cx="140" cy="40" r="5" transform="rotate(0,140,40)"/><path d="M 135 45v 10h 5a 5 5, 0, 0, 0, 0 -10" transform="rotate(180,140,50)"/><circle cx="140" cy="60" r="5" transform="rotate(0,140,60)"/><path d="M 135 95v 10h 10v -5a 5 5, 0, 0, 0, -5 -5" transform="rotate(0,140,100)"/><rect x="135" y="135" width="10" height="10" transform="rotate(0,140,140)"/><path d="M 135 145v 10h 10v -5a 5 5, 0, 0, 0, -5 -5" transform="rotate(0,140,150)"/><path d="M 135 155v 10h 10v -5a 5 5, 0, 0, 0, -5 -5" transform="rotate(0,140,160)"/><path d="M 135 165v 10h 10v -5a 5 5, 0, 0, 0, -5 -5" transform="rotate(90,140,170)"/><path d="M 135 175v 10h 10v -5a 5 5, 0, 0, 0, -5 -5" transform="rotate(180,140,180)"/><path d="M 135 195v 10h 5a 5 5, 0, 0, 0, 0 -10" transform="rotate(90,140,200)"/><path d="M 135 205v 10h 10v -5a 5 5, 0, 0, 0, -5 -5" transform="rotate(90,140,210)"/><path d="M 135 215v 10h 10v -5a 5 5, 0, 0, 0, -5 -5" transform="rotate(90,140,220)"/><path d="M 135 225v 10h 10v -5a 5 5, 0, 0, 0, -5 -5" transform="rotate(180,140,230)"/><path d="M 135 245v 10h 5a 5 5, 0, 0, 0, 0 -10" transform="rotate(90,140,250)"/><path d="M 135 255v 10h 5a 5 5, 0, 0, 0, 0 -10" transform="rotate(180,140,260)"/><path d="M 135 275v 10h 5a 5 5, 0, 0, 0, 0 -10" transform="rotate(180,140,280)"/><circle cx="140" cy="290" r="5" transform="rotate(0,140,290)"/><path d="M 145 5v 10h 10v -5a 5 5, 0, 0, 0, -5 -5" transform="rotate(270,150,10)"/><circle cx="150" cy="30" r="5" transform="rotate(0,150,30)"/><path d="M 145 65v 10h 10v -5a 5 5, 0, 0, 0, -5 -5" transform="rotate(0,150,70)"/><rect x="145" y="75" width="10" height="10" transform="rotate(0,150,80)"/><path d="M 145 85v 10h 10v -5a 5 5, 0, 0, 0, -5 -5" transform="rotate(90,150,90)"/><path d="M 145 115v 10h 10v -5a 5 5, 0, 0, 0, -5 -5" transform="rotate(180,150,120)"/><rect x="145" y="125" width="10" height="10" transform="rotate(0,150,130)"/><rect x="145" y="135" width="10" height="10" transform="rotate(0,150,140)"/><path d="M 145 155v 10h 5a 5 5, 0, 0, 0, 0 -10" transform="rotate(180,150,160)"/><circle cx="150" cy="180" r="5" transform="rotate(0,150,180)"/><path d="M 145 205v 10h 5a 5 5, 0, 0, 0, 0 -10" transform="rotate(0,150,210)"/><path d="M 145 225v 10h 10v -5a 5 5, 0, 0, 0, -5 -5" transform="rotate(270,150,230)"/><path d="M 145 235v 10h 5a 5 5, 0, 0, 0, 0 -10" transform="rotate(90,150,240)"/><path d="M 145 275v 10h 5a 5 5, 0, 0, 0, 0 -10" transform="rotate(180,150,280)"/><rect x="155" y="5" width="10" height="10" transform="rotate(0,160,10)"/><path d="M 155 15v 10h 5a 5 5, 0, 0, 0, 0 -10" transform="rotate(270,160,20)"/><path d="M 155 75v 10h 5a 5 5, 0, 0, 0, 0 -10" transform="rotate(180,160,80)"/><path d="M 155 85v 10h 5a 5 5, 0, 0, 0, 0 -10" transform="rotate(180,160,90)"/><path d="M 155 95v 10h 5a 5 5, 0, 0, 0, 0 -10" transform="rotate(90,160,100)"/><path d="M 155 105v 10h 10v -5a 5 5, 0, 0, 0, -5 -5" transform="rotate(0,160,110)"/><rect x="155" y="125" width="10" height="10" transform="rotate(0,160,130)"/><path d="M 155 145v 10h 10v -5a 5 5, 0, 0, 0, -5 -5" transform="rotate(270,160,150)"/><rect x="155" y="175" width="10" height="10" transform="rotate(0,160,180)"/><path d="M 155 185v 10h 5a 5 5, 0, 0, 0, 0 -10" transform="rotate(0,160,190)"/><circle cx="160" cy="210" r="5" transform="rotate(0,160,210)"/><rect x="155" y="215" width="10" height="10" transform="rotate(0,160,220)"/><circle cx="160" cy="250" r="5" transform="rotate(0,160,250)"/><path d="M 155 255v 10h 10v -5a 5 5, 0, 0, 0, -5 -5" transform="rotate(90,160,260)"/><path d="M 165 5v 10h 10v -5a 5 5, 0, 0, 0, -5 -5" transform="rotate(0,170,10)"/><rect x="165" y="35" width="10" height="10" transform="rotate(0,170,40)"/><rect x="165" y="55" width="10" height="10" transform="rotate(0,170,60)"/><path d="M 165 65v 10h 10v -5a 5 5, 0, 0, 0, -5 -5" transform="rotate(0,170,70)"/><path d="M 165 75v 10h 10v -5a 5 5, 0, 0, 0, -5 -5" transform="rotate(0,170,80)"/><path d="M 165 105v 10h 5a 5 5, 0, 0, 0, 0 -10" transform="rotate(90,170,110)"/><rect x="165" y="115" width="10" height="10" transform="rotate(0,170,120)"/><circle cx="170" cy="130" r="5" transform="rotate(0,170,130)"/><rect x="165" y="135" width="10" height="10" transform="rotate(0,170,140)"/><circle cx="170" cy="150" r="5" transform="rotate(0,170,150)"/><path d="M 165 165v 10h 10v -5a 5 5, 0, 0, 0, -5 -5" transform="rotate(0,170,170)"/><circle cx="170" cy="200" r="5" transform="rotate(0,170,200)"/><path d="M 165 245v 10h 5a 5 5, 0, 0, 0, 0 -10" transform="rotate(0,170,250)"/><path d="M 165 255v 10h 10v -5a 5 5, 0, 0, 0, -5 -5" transform="rotate(0,170,260)"/><path d="M 165 265v 10h 5a 5 5, 0, 0, 0, 0 -10" transform="rotate(0,170,270)"/><circle cx="170" cy="290" r="5" transform="rotate(0,170,290)"/><rect x="175" y="5" width="10" height="10" transform="rotate(0,180,10)"/><rect x="175" y="45" width="10" height="10" transform="rotate(0,180,50)"/><path d="M 175 55v 10h 5a 5 5, 0, 0, 0, 0 -10" transform="rotate(0,180,60)"/><rect x="175" y="95" width="10" height="10" transform="rotate(0,180,100)"/><circle cx="180" cy="120" r="5" transform="rotate(0,180,120)"/><rect x="175" y="125" width="10" height="10" transform="rotate(0,180,130)"/><rect x="175" y="145" width="10" height="10" transform="rotate(0,180,150)"/><rect x="175" y="155" width="10" height="10" transform="rotate(0,180,160)"/><rect x="175" y="185" width="10" height="10" transform="rotate(0,180,190)"/><path d="M 175 205v 10h 10v -5a 5 5, 0, 0, 0, -5 -5" transform="rotate(90,180,210)"/><circle cx="180" cy="220" r="5" transform="rotate(0,180,220)"/><path d="M 175 235v 10h 10v -5a 5 5, 0, 0, 0, -5 -5" transform="rotate(270,180,240)"/><path d="M 175 245v 10h 10v -5a 5 5, 0, 0, 0, -5 -5" transform="rotate(270,180,250)"/><path d="M 175 275v 10h 5a 5 5, 0, 0, 0, 0 -10" transform="rotate(270,180,280)"/><circle cx="180" cy="290" r="5" transform="rotate(0,180,290)"/><circle cx="190" cy="10" r="5" transform="rotate(0,190,10)"/><path d="M 185 25v 10h 10v -5a 5 5, 0, 0, 0, -5 -5" transform="rotate(0,190,30)"/><path d="M 185 35v 10h 5a 5 5, 0, 0, 0, 0 -10" transform="rotate(0,190,40)"/><rect x="185" y="65" width="10" height="10" transform="rotate(0,190,70)"/><path d="M 185 75v 10h 5a 5 5, 0, 0, 0, 0 -10" transform="rotate(0,190,80)"/><path d="M 185 105v 10h 5a 5 5, 0, 0, 0, 0 -10" transform="rotate(270,190,110)"/><rect x="185" y="115" width="10" height="10" transform="rotate(0,190,120)"/><circle cx="190" cy="140" r="5" transform="rotate(0,190,140)"/><path d="M 185 155v 10h 5a 5 5, 0, 0, 0, 0 -10" transform="rotate(90,190,160)"/><circle cx="190" cy="170" r="5" transform="rotate(0,190,170)"/><path d="M 185 175v 10h 10v -5a 5 5, 0, 0, 0, -5 -5" transform="rotate(270,190,180)"/><circle cx="190" cy="190" r="5" transform="rotate(0,190,190)"/><path d="M 185 205v 10h 10v -5a 5 5, 0, 0, 0, -5 -5" transform="rotate(180,190,210)"/><rect x="185" y="225" width="10" height="10" transform="rotate(0,190,230)"/><path d="M 185 235v 10h 5a 5 5, 0, 0, 0, 0 -10" transform="rotate(180,190,240)"/><path d="M 185 245v 10h 5a 5 5, 0, 0, 0, 0 -10" transform="rotate(0,190,250)"/><path d="M 185 255v 10h 10v -5a 5 5, 0, 0, 0, -5 -5" transform="rotate(90,190,260)"/><rect x="185" y="265" width="10" height="10" transform="rotate(0,190,270)"/><path d="M 195 5v 10h 5a 5 5, 0, 0, 0, 0 -10" transform="rotate(180,200,10)"/><rect x="195" y="25" width="10" height="10" transform="rotate(0,200,30)"/><path d="M 195 55v 10h 10v -5a 5 5, 0, 0, 0, -5 -5" transform="rotate(0,200,60)"/><circle cx="200" cy="80" r="5" transform="rotate(0,200,80)"/><path d="M 195 85v 10h 10v -5a 5 5, 0, 0, 0, -5 -5" transform="rotate(90,200,90)"/><circle cx="200" cy="110" r="5" transform="rotate(0,200,110)"/><rect x="195" y="125" width="10" height="10" transform="rotate(0,200,130)"/><path d="M 195 135v 10h 10v -5a 5 5, 0, 0, 0, -5 -5" transform="rotate(0,200,140)"/><path d="M 195 155v 10h 10v -5a 5 5, 0, 0, 0, -5 -5" transform="rotate(0,200,160)"/><path d="M 195 185v 10h 5a 5 5, 0, 0, 0, 0 -10" transform="rotate(270,200,190)"/><rect x="195" y="205" width="10" height="10" transform="rotate(0,200,210)"/><path d="M 195 225v 10h 5a 5 5, 0, 0, 0, 0 -10" transform="rotate(90,200,230)"/><path d="M 195 235v 10h 10v -5a 5 5, 0, 0, 0, -5 -5" transform="rotate(270,200,240)"/><circle cx="200" cy="250" r="5" transform="rotate(0,200,250)"/><path d="M 195 255v 10h 10v -5a 5 5, 0, 0, 0, -5 -5" transform="rotate(180,200,260)"/><path d="M 195 275v 10h 10v -5a 5 5, 0, 0, 0, -5 -5" transform="rotate(180,200,280)"/><circle cx="200" cy="290" r="5" transform="rotate(0,200,290)"/><path d="M 205 5v 10h 5a 5 5, 0, 0, 0, 0 -10" transform="rotate(270,210,10)"/><circle cx="210" cy="40" r="5" transform="rotate(0,210,40)"/><rect x="205" y="45" width="10" height="10" transform="rotate(0,210,50)"/><path d="M 205 55v 10h 5a 5 5, 0, 0, 0, 0 -10" transform="rotate(180,210,60)"/><rect x="205" y="65" width="10" height="10" transform="rotate(0,210,70)"/><circle cx="210" cy="80" r="5" transform="rotate(0,210,80)"/><circle cx="210" cy="90" r="5" transform="rotate(0,210,90)"/><rect x="205" y="95" width="10" height="10" transform="rotate(0,210,100)"/><path d="M 205 105v 10h 5a 5 5, 0, 0, 0, 0 -10" transform="rotate(180,210,110)"/><circle cx="210" cy="130" r="5" transform="rotate(0,210,130)"/><circle cx="210" cy="150" r="5" transform="rotate(0,210,150)"/><path d="M 205 155v 10h 10v -5a 5 5, 0, 0, 0, -5 -5" transform="rotate(270,210,160)"/><path d="M 205 175v 10h 10v -5a 5 5, 0, 0, 0, -5 -5" transform="rotate(90,210,180)"/><rect x="205" y="185" width="10" height="10" transform="rotate(0,210,190)"/><path d="M 205 205v 10h 5a 5 5, 0, 0, 0, 0 -10" transform="rotate(0,210,210)"/><rect x="205" y="215" width="10" height="10" transform="rotate(0,210,220)"/><rect x="205" y="225" width="10" height="10" transform="rotate(0,210,230)"/><circle cx="210" cy="240" r="5" transform="rotate(0,210,240)"/><circle cx="210" cy="250" r="5" transform="rotate(0,210,250)"/><rect x="205" y="275" width="10" height="10" transform="rotate(0,210,280)"/><path d="M 205 285v 10h 10v -5a 5 5, 0, 0, 0, -5 -5" transform="rotate(180,210,290)"/><circle cx="220" cy="90" r="5" transform="rotate(0,220,90)"/><rect x="215" y="95" width="10" height="10" transform="rotate(0,220,100)"/><rect x="215" y="105" width="10" height="10" transform="rotate(0,220,110)"/><circle cx="220" cy="130" r="5" transform="rotate(0,220,130)"/><circle cx="220" cy="140" r="5" transform="rotate(0,220,140)"/><circle cx="220" cy="170" r="5" transform="rotate(0,220,170)"/><path d="M 215 185v 10h 10v -5a 5 5, 0, 0, 0, -5 -5" transform="rotate(90,220,190)"/><path d="M 215 205v 10h 5a 5 5, 0, 0, 0, 0 -10" transform="rotate(180,220,210)"/><circle cx="220" cy="250" r="5" transform="rotate(0,220,250)"/><path d="M 215 255v 10h 5a 5 5, 0, 0, 0, 0 -10" transform="rotate(90,220,260)"/><circle cx="220" cy="280" r="5" transform="rotate(0,220,280)"/><rect x="215" y="285" width="10" height="10" transform="rotate(0,220,290)"/><path d="M 225 85v 10h 5a 5 5, 0, 0, 0, 0 -10" transform="rotate(0,230,90)"/><path d="M 225 95v 10h 5a 5 5, 0, 0, 0, 0 -10" transform="rotate(90,230,100)"/><rect x="225" y="135" width="10" height="10" transform="rotate(0,230,140)"/><rect x="225" y="145" width="10" height="10" transform="rotate(0,230,150)"/><path d="M 225 155v 10h 10v -5a 5 5, 0, 0, 0, -5 -5" transform="rotate(0,230,160)"/><rect x="225" y="165" width="10" height="10" transform="rotate(0,230,170)"/><rect x="225" y="185" width="10" height="10" transform="rotate(0,230,190)"/><path d="M 225 195v 10h 10v -5a 5 5, 0, 0, 0, -5 -5" transform="rotate(0,230,200)"/><path d="M 225 205v 10h 10v -5a 5 5, 0, 0, 0, -5 -5" transform="rotate(0,230,210)"/><path d="M 225 225v 10h 10v -5a 5 5, 0, 0, 0, -5 -5" transform="rotate(270,230,230)"/><path d="M 225 245v 10h 5a 5 5, 0, 0, 0, 0 -10" transform="rotate(0,230,250)"/><circle cx="240" cy="90" r="5" transform="rotate(0,240,90)"/><rect x="235" y="145" width="10" height="10" transform="rotate(0,240,150)"/><circle cx="240" cy="200" r="5" transform="rotate(0,240,200)"/><circle cx="240" cy="210" r="5" transform="rotate(0,240,210)"/><circle cx="240" cy="250" r="5" transform="rotate(0,240,250)"/><circle cx="240" cy="260" r="5" transform="rotate(0,240,260)"/><path d="M 235 285v 10h 5a 5 5, 0, 0, 0, 0 -10" transform="rotate(90,240,290)"/><circle cx="250" cy="90" r="5" transform="rotate(0,250,90)"/><path d="M 245 95v 10h 5a 5 5, 0, 0, 0, 0 -10" transform="rotate(270,250,100)"/><path d="M 245 105v 10h 5a 5 5, 0, 0, 0, 0 -10" transform="rotate(0,250,110)"/><path d="M 245 115v 10h 10v -5a 5 5, 0, 0, 0, -5 -5" transform="rotate(270,250,120)"/><rect x="245" y="125" width="10" height="10" transform="rotate(0,250,130)"/><circle cx="250" cy="140" r="5" transform="rotate(0,250,140)"/><circle cx="250" cy="150" r="5" transform="rotate(0,250,150)"/><path d="M 245 155v 10h 5a 5 5, 0, 0, 0, 0 -10" transform="rotate(90,250,160)"/><path d="M 245 185v 10h 10v -5a 5 5, 0, 0, 0, -5 -5" transform="rotate(90,250,190)"/><rect x="245" y="205" width="10" height="10" transform="rotate(0,250,210)"/><path d="M 245 215v 10h 5a 5 5, 0, 0, 0, 0 -10" transform="rotate(270,250,220)"/><circle cx="250" cy="230" r="5" transform="rotate(0,250,230)"/><rect x="245" y="235" width="10" height="10" transform="rotate(0,250,240)"/><path d="M 245 245v 10h 5a 5 5, 0, 0, 0, 0 -10" transform="rotate(270,250,250)"/><path d="M 245 255v 10h 10v -5a 5 5, 0, 0, 0, -5 -5" transform="rotate(270,250,260)"/><path d="M 245 265v 10h 10v -5a 5 5, 0, 0, 0, -5 -5" transform="rotate(270,250,270)"/><path d="M 245 285v 10h 5a 5 5, 0, 0, 0, 0 -10" transform="rotate(0,250,290)"/><circle cx="260" cy="90" r="5" transform="rotate(0,260,90)"/><rect x="255" y="95" width="10" height="10" transform="rotate(0,260,100)"/><circle cx="260" cy="110" r="5" transform="rotate(0,260,110)"/><rect x="255" y="125" width="10" height="10" transform="rotate(0,260,130)"/><path d="M 255 155v 10h 5a 5 5, 0, 0, 0, 0 -10" transform="rotate(270,260,160)"/><rect x="255" y="165" width="10" height="10" transform="rotate(0,260,170)"/><circle cx="260" cy="180" r="5" transform="rotate(0,260,180)"/><rect x="255" y="195" width="10" height="10" transform="rotate(0,260,200)"/><path d="M 255 205v 10h 10v -5a 5 5, 0, 0, 0, -5 -5" transform="rotate(180,260,210)"/><path d="M 255 215v 10h 10v -5a 5 5, 0, 0, 0, -5 -5" transform="rotate(90,260,220)"/><path d="M 255 235v 10h 5a 5 5, 0, 0, 0, 0 -10" transform="rotate(0,260,240)"/><rect x="265" y="85" width="10" height="10" transform="rotate(0,270,90)"/><path d="M 265 125v 10h 10v -5a 5 5, 0, 0, 0, -5 -5" transform="rotate(0,270,130)"/><rect x="265" y="135" width="10" height="10" transform="rotate(0,270,140)"/><path d="M 265 145v 10h 5a 5 5, 0, 0, 0, 0 -10" transform="rotate(90,270,150)"/><path d="M 265 175v 10h 10v -5a 5 5, 0, 0, 0, -5 -5" transform="rotate(0,270,180)"/><rect x="265" y="195" width="10" height="10" transform="rotate(0,270,200)"/><path d="M 265 205v 10h 10v -5a 5 5, 0, 0, 0, -5 -5" transform="rotate(270,270,210)"/><path d="M 265 215v 10h 10v -5a 5 5, 0, 0, 0, -5 -5" transform="rotate(90,270,220)"/><path d="M 265 225v 10h 5a 5 5, 0, 0, 0, 0 -10" transform="rotate(270,270,230)"/><path d="M 265 235v 10h 10v -5a 5 5, 0, 0, 0, -5 -5" transform="rotate(90,270,240)"/><path d="M 265 245v 10h 10v -5a 5 5, 0, 0, 0, -5 -5" transform="rotate(0,270,250)"/><path d="M 265 255v 10h 10v -5a 5 5, 0, 0, 0, -5 -5" transform="rotate(90,270,260)"/><path d="M 265 275v 10h 5a 5 5, 0, 0, 0, 0 -10" transform="rotate(270,270,280)"/><circle cx="280" cy="90" r="5" transform="rotate(0,280,90)"/><path d="M 275 95v 10h 10v -5a 5 5, 0, 0, 0, -5 -5" transform="rotate(270,280,100)"/><circle cx="280" cy="110" r="5" transform="rotate(0,280,110)"/><path d="M 275 125v 10h 5a 5 5, 0, 0, 0, 0 -10" transform="rotate(180,280,130)"/><circle cx="280" cy="150" r="5" transform="rotate(0,280,150)"/><rect x="275" y="165" width="10" height="10" transform="rotate(0,280,170)"/><circle cx="280" cy="190" r="5" transform="rotate(0,280,190)"/><path d="M 275 195v 10h 5a 5 5, 0, 0, 0, 0 -10" transform="rotate(0,280,200)"/><path d="M 275 205v 10h 5a 5 5, 0, 0, 0, 0 -10" transform="rotate(270,280,210)"/><path d="M 275 245v 10h 10v -5a 5 5, 0, 0, 0, -5 -5" transform="rotate(270,280,250)"/><circle cx="280" cy="280" r="5" transform="rotate(0,280,280)"/><path d="M 285 105v 10h 10v -5a 5 5, 0, 0, 0, -5 -5" transform="rotate(90,290,110)"/><rect x="285" y="145" width="10" height="10" transform="rotate(0,290,150)"/><path d="M 285 175v 10h 10v -5a 5 5, 0, 0, 0, -5 -5" transform="rotate(180,290,180)"/><path d="M 285 195v 10h 5a 5 5, 0, 0, 0, 0 -10" transform="rotate(90,290,200)"/><path d="M 285 225v 10h 10v -5a 5 5, 0, 0, 0, -5 -5" transform="rotate(270,290,230)"/><rect x="285" y="245" width="10" height="10" transform="rotate(0,290,250)"/><path d="M 285 255v 10h 5a 5 5, 0, 0, 0, 0 -10" transform="rotate(270,290,260)"/><path d="M 285 265v 10h 5a 5 5, 0, 0, 0, 0 -10" transform="rotate(90,290,270)"/></g><g class="corners-square-color-0-0"><rect x="5" y="5" width="10" height="10" transform="rotate(0,10,10)"/><path d="M 5 15v 10h 10v -5a 5 5, 0, 0, 0, -5 -5" transform="rotate(90,10,20)"/><circle cx="10" cy="30" r="5" transform="rotate(0,10,30)"/><path d="M 5 35v 10h 5a 5 5, 0, 0, 0, 0 -10" transform="rotate(180,10,40)"/><path d="M 5 45v 10h 10v -5a 5 5, 0, 0, 0, -5 -5" transform="rotate(90,10,50)"/><path d="M 5 55v 10h 10v -5a 5 5, 0, 0, 0, -5 -5" transform="rotate(270,10,60)"/><circle cx="10" cy="70" r="5" transform="rotate(0,10,70)"/><rect x="15" y="5" width="10" height="10" transform="rotate(0,20,10)"/><circle cx="20" cy="70" r="5" transform="rotate(0,20,70)"/><path d="M 25 5v 10h 10v -5a 5 5, 0, 0, 0, -5 -5" transform="rotate(0,30,10)"/><path d="M 25 65v 10h 5a 5 5, 0, 0, 0, 0 -10" transform="rotate(90,30,70)"/><rect x="35" y="5" width="10" height="10" transform="rotate(0,40,10)"/><circle cx="40" cy="70" r="5" transform="rotate(0,40,70)"/><rect x="45" y="5" width="10" height="10" transform="rotate(0,50,10)"/><rect x="45" y="65" width="10" height="10" transform="rotate(0,50,70)"/><rect x="55" y="5" width="10" height="10" transform="rotate(0,60,10)"/><circle cx="60" cy="70" r="5" transform="rotate(0,60,70)"/><path d="M 65 5v 10h 5a 5 5, 0, 0, 0, 0 -10" transform="rotate(90,70,10)"/><path d="M 65 15v 10h 10v -5a 5 5, 0, 0, 0, -5 -5" transform="rotate(0,70,20)"/><path d="M 65 25v 10h 10v -5a 5 5, 0, 0, 0, -5 -5" transform="rotate(270,70,30)"/><path d="M 65 35v 10h 10v -5a 5 5, 0, 0, 0, -5 -5" transform="rotate(90,70,40)"/><path d="M 65 45v 10h 5a 5 5, 0, 0, 0, 0 -10" transform="rotate(90,70,50)"/><path d="M 65 55v 10h 10v -5a 5 5, 0, 0, 0, -5 -5" transform="rotate(270,70,60)"/><rect x="65" y="65" width="10" height="10" transform="rotate(0,70,70)"/></g><g class="corners-dot-color-0-0"><rect x="25" y="25" width="10" height="10" transform="rotate(0,30,30)"/><path d="M 25 35v 10h 5a 5 5, 0, 0, 0, 0 -10" transform="rotate(180,30,40)"/><rect x="25" y="45" width="10" height="10" transform="rotate(0,30,50)"/><rect x="35" y="25" width="10" height="10" transform="rotate(0,40,30)"/><path d="M 35 35v 10h 5a 5 5, 0, 0, 0, 0 -10" transform="rotate(0,40,40)"/><circle cx="40" cy="50" r="5" transform="rotate(0,40,50)"/><path d="M 45 25v 10h 5a 5 5, 0, 0, 0, 0 -10" transform="rotate(270,50,30)"/><path d="M 45 35v 10h 10v -5a 5 5, 0, 0, 0, -5 -5" transform="rotate(270,50,40)"/><path d="M 45 45v 10h 10v -5a 5 5, 0, 0, 0, -5 -5" transform="rotate(180,50,50)"/></g><g class="corners-square-color-1-0"><circle cx="230" cy="10" r="5" transform="rotate(0,230,10)"/><path d="M 225 15v 10h 10v -5a 5 5, 0, 0, 0, -5 -5" transform="rotate(90,230,20)"/><path d="M 225 25v 10h 5a 5 5, 0, 0, 0, 0 -10" transform="rotate(270,230,30)"/><rect x="225" y="35" width="10" height="10" transform="rotate(0,230,40)"/><circle cx="230" cy="50" r="5" transform="rotate(0,230,50)"/><circle cx="230" cy="60" r="5" transform="rotate(0,230,60)"/><circle cx="230" cy="70" r="5" transform="rotate(0,230,70)"/><rect x="235" y="5" width="10" height="10" transform="rotate(0,240,10)"/><circle cx="240" cy="70" r="5" transform="rotate(0,240,70)"/><circle cx="250" cy="10" r="5" transform="rotate(0,250,10)"/><path d="M 245 65v 10h 5a 5 5, 0, 0, 0, 0 -10" transform="rotate(180,250,70)"/><path d="M 255 5v 10h 10v -5a 5 5, 0, 0, 0, -5 -5" transform="rotate(180,260,10)"/><path d="M 255 65v 10h 10v -5a 5 5, 0, 0, 0, -5 -5" transform="rotate(180,260,70)"/><rect x="265" y="5" width="10" height="10" transform="rotate(0,270,10)"/><circle cx="270" cy="70" r="5" transform="rotate(0,270,70)"/><circle cx="280" cy="10" r="5" transform="rotate(0,280,10)"/><path d="M 275 65v 10h 10v -5a 5 5, 0, 0, 0, -5 -5" transform="rotate(0,280,70)"/><rect x="285" y="5" width="10" height="10" transform="rotate(0,290,10)"/><path d="M 285 15v 10h 10v -5a 5 5, 0, 0, 0, -5 -5" transform="rotate(180,290,20)"/><path d="M 285 25v 10h 5a 5 5, 0, 0, 0, 0 -10" transform="rotate(90,290,30)"/><path d="M 285 35v 10h 5a 5 5, 0, 0, 0, 0 -10" transform="rotate(0,290,40)"/><path d="M 285 45v 10h 5a 5 5, 0, 0, 0, 0 -10" transform="rotate(270,290,50)"/><path d="M 285 55v 10h 10v -5a 5 5, 0, 0, 0, -5 -5" transform="rotate(90,290,60)"/><circle cx="290" cy="70" r="5" transform="rotate(0,290,70)"/></g><g class="corners-dot-color-1-0"><path d="M 245 25v 10h 5a 5 5, 0, 0, 0, 0 -10" transform="rotate(90,250,30)"/><path d="M 245 35v 10h 10v -5a 5 5, 0, 0, 0, -5 -5" transform="rotate(270,250,40)"/><rect x="245" y="45" width="10" height="10" transform="rotate(0,250,50)"/><path d="M 255 25v 10h 5a 5 5, 0, 0, 0, 0 -10" transform="rotate(270,260,30)"/><rect x="255" y="35" width="10" height="10" transform="rotate(0,260,40)"/><rect x="255" y="45" width="10" height="10" transform="rotate(0,260,50)"/><rect x="265" y="25" width="10" height="10" transform="rotate(0,270,30)"/><path d="M 265 35v 10h 5a 5 5, 0, 0, 0, 0 -10" transform="rotate(0,270,40)"/><rect x="265" y="45" width="10" height="10" transform="rotate(0,270,50)"/></g><g class="corners-square-color-0-1"><rect x="5" y="225" width="10" height="10" transform="rotate(0,10,230)"/><rect x="5" y="235" width="10" height="10" transform="rotate(0,10,240)"/><path d="M 5 245v 10h 10v -5a 5 5, 0, 0, 0, -5 -5" transform="rotate(270,10,250)"/><path d="M 5 255v 10h 10v -5a 5 5, 0, 0, 0, -5 -5" transform="rotate(90,10,260)"/><circle cx="10" cy="270" r="5" transform="rotate(0,10,270)"/><circle cx="10" cy="280" r="5" transform="rotate(0,10,280)"/><circle cx="10" cy="290" r="5" transform="rotate(0,10,290)"/><path d="M 15 225v 10h 5a 5 5, 0, 0, 0, 0 -10" transform="rotate(90,20,230)"/><circle cx="20" cy="290" r="5" transform="rotate(0,20,290)"/><circle cx="30" cy="230" r="5" transform="rotate(0,30,230)"/><path d="M 25 285v 10h 10v -5a 5 5, 0, 0, 0, -5 -5" transform="rotate(90,30,290)"/><rect x="35" y="225" width="10" height="10" transform="rotate(0,40,230)"/><path d="M 35 285v 10h 10v -5a 5 5, 0, 0, 0, -5 -5" transform="rotate(90,40,290)"/><path d="M 45 225v 10h 5a 5 5, 0, 0, 0, 0 -10" transform="rotate(90,50,230)"/><circle cx="50" cy="290" r="5" transform="rotate(0,50,290)"/><circle cx="60" cy="230" r="5" transform="rotate(0,60,230)"/><rect x="55" y="285" width="10" height="10" transform="rotate(0,60,290)"/><circle cx="70" cy="230" r="5" transform="rotate(0,70,230)"/><path d="M 65 235v 10h 10v -5a 5 5, 0, 0, 0, -5 -5" transform="rotate(180,70,240)"/><circle cx="70" cy="250" r="5" transform="rotate(0,70,250)"/><rect x="65" y="255" width="10" height="10" transform="rotate(0,70,260)"/><rect x="65" y="265" width="10" height="10" transform="rotate(0,70,270)"/><rect x="65" y="275" width="10" height="10" transform="rotate(0,70,280)"/><circle cx="70" cy="290" r="5" transform="rotate(0,70,290)"/></g><g class="corners-dot-color-0-1"><rect x="25" y="245" width="10" height="10" transform="rotate(0,30,250)"/><path d="M 25 255v 10h 5a 5 5, 0, 0, 0, 0 -10" transform="rotate(180,30,260)"/><path d="M 25 265v 10h 5a 5 5, 0, 0, 0, 0 -10" transform="rotate(180,30,270)"/><circle cx="40" cy="250" r="5" transform="rotate(0,40,250)"/><rect x="35" y="255" width="10" height="10" transform="rotate(0,40,260)"/><rect x="35" y="265" width="10" height="10" transform="rotate(0,40,270)"/><rect x="45" y="245" width="10" height="10" transform="rotate(0,50,250)"/><rect x="45" y="255" width="10" height="10" transform="rotate(0,50,260)"/><path d="M 45 265v 10h 5a 5 5, 0, 0, 0, 0 -10" transform="rotate(90,50,270)"/></g></svg></g></svg></svg>