<svg width="146" height="223" viewBox="0 0 146 223" fill="none" xmlns="http://www.w3.org/2000/svg">
<path id="Vector" d="M1.14009 214.61L69.3701 112.33L69.58 112.01C70.0776 111.186 70.3405 110.242 70.3405 109.28C70.3405 108.318 70.0776 107.374 69.58 106.55L69.4001 106.27L35.54 55.48C34.9626 54.6175 34.6545 53.6029 34.6545 52.5649C34.6545 51.527 34.9626 50.5125 35.54 49.65L67.05 2.37C67.5305 1.65015 68.1811 1.06002 68.9443 0.651855C69.7075 0.243688 70.5595 0.0300293 71.425 0.0300293C72.2905 0.0300293 73.1425 0.243688 73.9057 0.651855C74.6689 1.06002 75.3195 1.65015 75.8 2.37L145.02 106.24L145.15 106.43V106.52C145.648 107.344 145.911 108.288 145.911 109.25C145.911 110.212 145.648 111.156 145.15 111.98L144.94 112.3L72.8601 220.41C72.3807 221.13 71.7311 221.72 70.9687 222.128C70.2063 222.536 69.355 222.75 68.4902 222.75H5.49019C4.545 222.744 3.61871 222.483 2.80953 221.995C2.00034 221.506 1.33827 220.808 0.89278 219.974C0.447285 219.141 0.234976 218.202 0.278522 217.258C0.322067 216.314 0.619761 215.399 1.14009 214.61Z" fill="#4D4D4D"/>
</svg>
